<?xml version="1.0"?>
<svg xmlns="http://www.w3.org/2000/svg" xmlns:xlink="http://www.w3.org/1999/xlink" version="1.1" id="Capa_1" x="0px" y="0px" viewBox="0 0 484 484" style="enable-background:new 0 0 484 484;" xml:space="preserve" width="512px" height="512px"><g><g>
	<g>
		<path d="M212,106.7c-57.1,0-103.4,46.3-103.4,103.4c0,57.1,46.2,103.5,103.4,103.5s103.4-46.3,103.4-103.5    C315.3,153,269.1,106.8,212,106.7z M212,293.6c-46.1,0-83.4-37.4-83.4-83.4s37.4-83.4,83.4-83.4s83.4,37.4,83.4,83.4    S258,293.5,212,293.6z" data-original="#000000" class="active-path" data-old_color="#000000" fill="#0747A6"/>
	</g>
</g><g>
	<g>
		<path d="M444.9,144H424v-24.4C424,98,406.4,80,384.9,80H39.1C17.6,80,0,98,0,119.6v181c0,21.6,17.5,39.2,39.1,39.4H60v24.4    C60,386,77.6,404,99.1,404h345.8c21.5,0,39.1-18,39.1-39.6v-181C484,161.7,466.5,144.1,444.9,144z M39.1,320    c-10.6-0.1-19.1-8.8-19.1-19.4v-181C20,109,28.6,100,39.1,100h345.8c10.5,0,19.1,9,19.1,19.6v181c0,10.6-8.5,19.2-19.1,19.4H39.1z     M464,364.4c0,10.6-8.6,19.6-19.1,19.6H99.1c-10.5,0-19.1-9-19.1-19.6V340h304.9c21.6-0.1,39.1-17.7,39.1-39.4V164h20.9    c10.6,0.1,19.1,8.8,19.1,19.4V364.4z" data-original="#000000" class="active-path" data-old_color="#000000" fill="#0747A6"/>
	</g>
</g><g>
	<g>
		<path d="M244.2,178.1h-9.7c-0.8-2.4-1.8-4.8-3-7h12.7c5.5-0.1,10-4.6,10-10.1s-4.5-10-10-10h-64.4c-5.5,0-10,4.5-10,10    s4.5,10,10,10h18.4c5.6,0,11,2.6,14.5,7h-32.9c-5.5,0-10,4.5-10,10s4.5,10,10,10h33c-0.6,1-1.3,1.9-2.1,2.7    c-3.3,3.3-7.8,5.2-12.5,5.3h-18.4c-5.5,0-10,4.5-10,10c0,2.8,1.1,5.4,3.1,7.3l46.1,43.5c4,3.8,10.4,3.5,14.1-0.5s3.5-10.3-0.4-14    l-28.3-26.7c7.7-1.3,14.9-4.9,20.4-10.5c0,0,0-0.2,0.1-0.2c4.8-4.6,8.1-10.4,9.6-16.8h9.7c5.5,0,10-4.5,10-10    S249.7,178.1,244.2,178.1z" data-original="#000000" class="active-path" data-old_color="#000000" fill="#0747A6"/>
	</g>
</g><g>
	<g>
		<path d="M62.6,110.6c-17.1,0-31,13.9-31,31c0,17.1,13.9,31,31,31c17.1,0,31-13.9,31-31C93.6,124.5,79.7,110.6,62.6,110.6z     M62.6,152.5c-6.1,0-11-4.9-11-11s4.9-11,11-11c6.1,0,11,4.9,11,11S68.7,152.5,62.6,152.5z" data-original="#000000" class="active-path" data-old_color="#000000" fill="#0747A6"/>
	</g>
</g><g>
	<g>
		<path d="M361.3,246.8c-17.1,0-31,13.9-31,31c0,17.1,13.9,31,31,31s31-13.9,31-31C392.3,260.7,378.4,246.9,361.3,246.8z     M361.3,288.8c-6.1,0-11-4.9-11-11c0-6.1,4.9-11,11-11s11,4.9,11,11C372.3,283.8,367.4,288.7,361.3,288.8z" data-original="#000000" class="active-path" data-old_color="#000000" fill="#0747A6"/>
	</g>
</g></g> </svg>
